HIERARCHY
ROOT Hips
{
  OFFSET 52.5951 100.9 44.763
  CHANNELS 6 Xposition Yposition Zposition Zrotation Xrotation Yrotation
  JOINT spine
  {
    OFFSET 0 8.81704 0.507024
    CHANNELS 3 Zrotation Xrotation Yrotation
    JOINT spine1
    {
      OFFSET 0 10.7766 0
      CHANNELS 3 Zrotation Xrotation Yrotation
      JOINT spine2
      {
        OFFSET 0 10.3259 0
        CHANNELS 3 Zrotation Xrotation Yrotation
        JOINT Neck
        {
          OFFSET 0 26.511 1.26395
          CHANNELS 3 Zrotation Xrotation Yrotation
          JOINT Head
          {
            OFFSET 0 8.00966 0
            CHANNELS 3 Zrotation Xrotation Yrotation
            End Site
            {
              OFFSET 0 19.3879 -6.39386
            }
          }
        }
        JOINT RightShoulder
        {
          OFFSET -4.34795 11.1512 -0.605422
          CHANNELS 3 Zrotation Xrotation Yrotation
          JOINT RightArm
          {
            OFFSET 0 14.6258 0
            CHANNELS 3 Zrotation Xrotation Yrotation
            JOINT RightArmRoll
            {
              OFFSET 0 7.3834 0
              CHANNELS 3 Zrotation Xrotation Yrotation
              JOINT RightForeArm
              {
                OFFSET 0 21.5052 0
                CHANNELS 3 Zrotation Xrotation Yrotation
                JOINT RightForeArmRoll
                {
                  OFFSET 0 8.28532 0
                  CHANNELS 3 Zrotation Xrotation Yrotation
                  JOINT RightHand
                  {
                    OFFSET 0 16.6268 0
                    CHANNELS 3 Zrotation Xrotation Yrotation
                    End Site
                    {
                      OFFSET 0 0 0
                    }
                  }
                }
              }
            }
          }
        }
        JOINT LeftShoulder
        {
          OFFSET 4.34795 11.1512 -0.605422
          CHANNELS 3 Zrotation Xrotation Yrotation
          JOINT LeftArm
          {
            OFFSET 0 14.6258 0
            CHANNELS 3 Zrotation Xrotation Yrotation
            JOINT LeftArmRoll
            {
              OFFSET 0 7.3834 0
              CHANNELS 3 Zrotation Xrotation Yrotation
              JOINT LeftForeArm
              {
                OFFSET 0 21.5052 0
                CHANNELS 3 Zrotation Xrotation Yrotation
                JOINT LeftForeArmRoll
                {
                  OFFSET 0 8.28532 0
                  CHANNELS 3 Zrotation Xrotation Yrotation
                  JOINT LeftHand
                  {
                    OFFSET 0 16.6268 0
                    CHANNELS 3 Zrotation Xrotation Yrotation
                    End Site
                    {
                      OFFSET 0 0 0
                    }
                  }
                }
              }
            }
          }
        }
      }
    }
  }
  JOINT RightUpLeg
  {
    OFFSET -7.8151 -1.43309 -1.20217
    CHANNELS 3 Zrotation Xrotation Yrotation
    JOINT RightUpLegRoll
    {
      OFFSET 0 19.4959 0
      CHANNELS 3 Zrotation Xrotation Yrotation
      JOINT RightLeg
      {
        OFFSET 0 -24.1427 0
        CHANNELS 3 Zrotation Xrotation Yrotation
        JOINT RightLegRoll
        {
          OFFSET 0 24.2217 0
          CHANNELS 3 Zrotation Xrotation Yrotation
          JOINT RightFoot
          {
            OFFSET 0 20.1605 0
            CHANNELS 3 Zrotation Xrotation Yrotation
            JOINT RightToeBase
            {
              OFFSET 0 16.8532 0
              CHANNELS 3 Zrotation Xrotation Yrotation
              End Site
              {
                OFFSET 0.00714343 8.16187 -0.94078
              }
            }
          }
        }
      }
    }
  }
  JOINT LeftUpLeg
  {
    OFFSET 7.8151 -1.43309 -1.20217
    CHANNELS 3 Zrotation Xrotation Yrotation
    JOINT LeftUpLegRoll
    {
      OFFSET 0 19.496 0
      CHANNELS 3 Zrotation Xrotation Yrotation
      JOINT LeftLeg
      {
        OFFSET 0 24.1426 0
        CHANNELS 3 Zrotation Xrotation Yrotation
        JOINT LeftLegRoll
        {
          OFFSET 0 24.4456 0
          CHANNELS 3 Zrotation Xrotation Yrotation
          JOINT LeftFoot
          {
            OFFSET 0 19.9366 0
            CHANNELS 3 Zrotation Xrotation Yrotation
            JOINT LeftToeBase
            {
              OFFSET 0 16.8532 0
              CHANNELS 3 Zrotation Xrotation Yrotation
              End Site
              {
                OFFSET -0.0320138 8.16187 -0.940781
              }
            }
          }
        }
      }
    }
  }
}
MOTION
Frames: 12
Frame Time: 0.00208333
50.9875 64.5076 17.3862 -2.08312 35.4955 5.63841 0.568652 2.60493 0.0229765 1.14702 9.21222 -0.0460322 1.15122 10.8571 -0.0677023 -11.6641 16.6348 4.33696 -2.49181 -13.7067 0.580537 40.3471 -8.68623 -4.9881 126.371 7.22718 -40.0252 -1.64162e-007 -1.42725e-006 1.86646e-006 -15.0534 84.7426 11.3415 -2.56029e-007 1.4486e-005 -3.00898 8.02893 -4.95092 0.697384 -49.8637 -8.29288 4.92413 -118.837 16.7484 47.0015 8.72567e-007 -1.69209e-006 1.83081e-006 0.321802 79.6435 2.77459 8.36647e-007 -1.05834e-006 3.00568 -8.02885 -4.95127 -0.697602 34.0454 65.3056 147.937 180 3.05148e-005 179.222 36.0402 84.4635 -40.2961 6.14998e-006 -7.32193e-006 1.63933 -46.6947 80.6425 47.3454 8.1338 25.2359 -3.474 -4.83245 68.6079 -174.111 4.47153e-006 -3.51245e-005 -0.653035 149.779 -86.0274 149.241 2.45166e-006 -6.74663e-007 -1.89331 34.8493 79.8091 -39.4449 -8.13649 25.2327 3.4865 
50.9925 64.6503 17.4151 -2.08155 35.5173 5.65695 0.56692 2.59602 0.024385 1.14321 9.19441 -0.0428358 1.14738 10.8393 -0.0643819 -11.647 16.5779 4.31744 -2.46811 -13.6533 0.577908 40.4202 -8.69126 -4.99446 126.322 7.37821 -39.9063 -1.64162e-007 -1.42725e-006 1.86646e-006 -13.5617 84.6092 9.96144 -2.56029e-007 1.4486e-005 -3.00898 8.02893 -4.95092 0.697384 -49.8463 -8.2927 4.92352 -118.908 16.845 46.8819 8.72567e-007 -1.69209e-006 1.83081e-006 -0.341812 79.3991 3.29349 8.36647e-007 -1.05834e-006 3.00568 -8.02885 -4.95127 -0.697602 34.2371 65.4509 147.71 180 3.05148e-005 179.224 37.3523 84.5911 -41.6321 6.14998e-006 -7.32193e-006 1.63353 -46.7322 80.6524 47.3938 8.1338 25.2359 -3.474 -4.86452 68.7766 -174.08 4.47153e-006 -3.51244e-005 -0.652441 148.744 -86.2099 148.24 2.45166e-006 -6.74663e-007 -1.88915 34.8868 79.8088 -39.461 -8.13649 25.2327 3.48653 
51 64.7912 17.4528 -2.0793 35.539 5.67515 0.564993 2.58691 0.02582 1.13908 9.17622 -0.039717 1.14324 10.8211 -0.0611052 -11.6378 16.5106 4.30013 -2.43054 -13.5887 0.579665 40.4958 -8.69428 -4.99903 126.271 7.52915 -39.7836 -1.64162e-007 -1.42725e-006 1.86646e-006 -12.1388 84.4715 8.65011 -2.56029e-007 1.4486e-005 -3.00898 8.02893 -4.95092 0.697384 -49.8273 -8.2936 4.92365 -118.982 16.943 46.7633 8.72567e-007 -1.69209e-006 1.83081e-006 -0.979573 79.1525 3.78651 8.36647e-007 -1.05834e-006 3.00568 -8.02885 -4.95127 -0.697602 34.4317 65.5968 147.479 180 3.05148e-005 179.227 38.7419 84.7169 -43.0457 6.14998e-006 -7.32193e-006 1.62768 -46.7654 80.6616 47.4378 8.1338 25.2359 -3.474 -4.89767 68.9465 -174.048 4.47153e-006 -3.51245e-005 -0.651759 147.596 -86.3935 147.126 2.45166e-006 -6.74663e-007 -1.88466 34.9196 79.8074 -39.4724 -8.13649 25.2327 3.48656 
50.9962 64.9344 17.481 -2.07643 35.5605 5.69298 0.562904 2.57766 0.0272751 1.13471 9.15773 -0.036675 1.13885 10.8026 -0.0578761 -11.6355 16.4348 4.28479 -2.3813 -13.5148 0.585149 40.5736 -8.69522 -5.00177 126.22 7.67998 -39.6571 -1.64162e-007 -1.42725e-006 1.86646e-006 -10.7822 84.3293 7.40499 -2.56029e-007 1.4486e-005 -3.00898 8.02893 -4.95092 0.697384 -49.8073 -8.29535 4.92437 -119.057 17.0422 46.6454 8.72567e-007 -1.69209e-006 1.83081e-006 -1.59308 78.9039 4.2553 8.36647e-007 -1.05834e-006 3.00568 -8.02885 -4.95127 -0.697602 34.6296 65.7433 147.245 180 3.05148e-005 179.229 40.2137 84.8408 -44.5416 6.14998e-006 -7.32193e-006 1.62178 -46.7943 80.6701 47.4773 8.1338 25.2359 -3.474 -4.93208 69.1175 -174.015 4.47153e-006 -3.51245e-005 -0.651005 146.315 -86.5779 145.879 2.45166e-006 -6.74663e-007 -1.87989 34.9478 79.8049 -39.4795 -8.13649 25.2327 3.4866 
51.0045 65.067 17.521 -2.07302 35.5817 5.71044 0.560686 2.5683 0.028744 1.13013 9.13903 -0.0337086 1.13427 10.7839 -0.054699 -11.639 16.3521 4.27117 -2.32254 -13.4336 0.593701 40.6535 -8.69402 -5.00264 126.166 7.83068 -39.5269 -1.64162e-007 -1.42725e-006 1.86646e-006 -9.48964 84.1829 6.22368 -2.56029e-007 1.4486e-005 -3.00898 8.02893 -4.95092 0.697384 -49.7871 -8.29772 4.92555 -119.132 17.1429 46.5279 8.72567e-007 -1.69209e-006 1.83081e-006 -2.18385 78.6536 4.70139 8.36647e-007 -1.05834e-006 3.00568 -8.02885 -4.95127 -0.697602 34.831 65.8906 147.007 180 3.05148e-005 179.231 41.7728 84.9623 -46.1246 6.14998e-006 -7.32193e-006 1.61584 -46.8189 80.6779 47.5124 8.1338 25.2359 -3.474 -4.96791 69.2899 -173.98 4.47153e-006 -3.51245e-005 -0.650192 144.877 -86.7626 144.476 2.45166e-006 -6.74663e-007 -1.87488 34.9722 79.8015 -39.4827 -8.13649 25.2327 3.48663 
51.0042 65.2204 17.5272 -2.06911 35.6024 5.7275 0.558371 2.55888 0.0302203 1.12542 9.1202 -0.030817 1.12955 10.7651 -0.0515779 -11.6474 16.2644 4.25904 -2.25646 -13.3472 0.604662 40.7353 -8.69062 -5.0016 126.112 7.98121 -39.3928 -1.64162e-007 -1.42725e-006 1.86646e-006 -8.2586 84.0322 5.10374 -2.56029e-007 1.4486e-005 -3.00898 8.02893 -4.95092 0.697384 -49.7673 -8.30049 4.92703 -119.207 17.2449 46.4104 8.72567e-007 -1.69209e-006 1.83081e-006 -2.75332 78.4017 5.12625 8.36647e-007 -1.05834e-006 3.00568 -8.02885 -4.95127 -0.697602 35.0362 66.0387 146.764 180 3.05148e-005 179.233 43.4242 85.0811 -47.7999 6.14998e-006 -7.32193e-006 1.60986 -46.8391 80.6849 47.5429 8.1338 25.2359 -3.474 -5.0053 69.4637 -173.944 4.47153e-006 -3.51245e-005 -0.649334 143.253 -86.947 142.887 2.45166e-006 -6.74663e-007 -1.86969 34.993 79.797 -39.4821 -8.13649 25.2327 3.48666 
51.0128 65.3605 17.5689 -2.0648 35.6226 5.74416 0.555993 2.54943 0.0316976 1.12062 9.10133 -0.027999 1.12475 10.7462 -0.0485169 -11.6596 16.1732 4.24815 -2.18522 -13.2575 0.617375 40.8187 -8.68496 -4.99863 126.056 8.13156 -39.2548 -1.64162e-007 -1.42725e-006 1.86646e-006 -7.08676 83.8773 4.04282 -2.56029e-007 1.4486e-005 -3.00898 8.02893 -4.95092 0.697384 -49.7486 -8.30344 4.92867 -119.282 17.3484 46.2928 8.72567e-007 -1.69209e-006 1.83081e-006 -3.30285 78.1485 5.53126 8.36647e-007 -1.05834e-006 3.00568 -8.02885 -4.95127 -0.697602 35.2453 66.1877 146.517 180 3.05149e-005 179.235 45.1728 85.1968 -49.5724 6.14998e-006 -7.32193e-006 1.60384 -46.8549 80.6912 47.5689 8.1338 25.2359 -3.474 -5.04444 69.639 -173.906 4.47153e-006 -3.51245e-005 -0.648445 141.405 -87.1306 141.076 2.45166e-006 -6.74663e-007 -1.86434 35.0107 79.7917 -39.4781 -8.13649 25.2327 3.48669 
51.0164 65.5036 17.5971 -2.06014 35.6419 5.76039 0.553584 2.54001 0.0331696 1.11579 9.08249 -0.0252538 1.11992 10.7274 -0.0455202 -11.6744 16.0803 4.23824 -2.11098 -13.1665 0.631182 40.9035 -8.67696 -4.99368 125.999 8.28167 -39.1129 -1.64162e-007 -1.42725e-006 1.86646e-006 -5.97182 83.7183 3.03864 -2.56029e-007 1.4486e-005 -3.00898 8.02893 -4.95092 0.697384 -49.7317 -8.30634 4.93032 -119.356 17.4533 46.1746 8.72567e-007 -1.69209e-006 1.83081e-006 -3.83371 77.8943 5.91774 8.36647e-007 -1.05834e-006 3.00568 -8.02885 -4.95127 -0.697602 35.4587 66.3379 146.266 180 3.05149e-005 179.238 47.0236 85.309 -51.4471 6.14998e-006 -7.32193e-006 1.59778 -46.8664 80.6968 47.5904 8.1338 25.2359 -3.474 -5.0855 69.8158 -173.866 4.47153e-006 -3.51245e-005 -0.647539 139.291 -87.3125 138.997 2.45166e-006 -6.74663e-007 -1.85889 35.0257 79.7855 -39.4712 -8.13649 25.2327 3.48672 
51.0231 65.6463 17.6329 -2.05519 35.6604 5.77618 0.551177 2.53064 0.0346299 1.11099 9.06378 -0.0225803 1.11512 10.7087 -0.0425919 -11.691 15.9875 4.22908 -2.03591 -13.0762 0.645429 40.9896 -8.66658 -4.98672 125.941 8.43154 -38.9671 -1.64162e-007 -1.42725e-006 1.86646e-006 -4.91153 83.5549 2.08893 -2.56029e-007 1.4486e-005 -3.00898 8.02893 -4.95092 0.697384 -49.7173 -8.30896 4.93184 -119.428 17.5596 46.0556 8.72567e-007 -1.69209e-006 1.83081e-006 -4.34713 77.6392 6.28692 8.36647e-007 -1.05834e-006 3.00568 -8.02885 -4.95127 -0.697602 35.6767 66.4892 146.01 180 3.05149e-005 179.24 48.9814 85.4173 -53.4289 6.14998e-006 -7.32193e-006 1.59168 -46.8734 80.7017 47.6074 8.1338 25.2359 -3.474 -5.12867 69.9944 -173.824 4.47153e-006 -3.51245e-005 -0.64663 136.853 -87.4916 136.596 2.45166e-006 -6.74663e-007 -1.85338 35.0385 79.7786 -39.4615 -8.13649 25.2327 3.48675 
51.0205 65.7955 17.6585 -2.05004 35.6778 5.79152 0.548806 2.52138 0.0360721 1.10627 9.04528 -0.0199775 1.1104 10.6902 -0.0397361 -11.7082 15.8965 4.22041 -1.96217 -12.9886 0.659461 41.0766 -8.65374 -4.97771 125.882 8.58112 -38.8173 -1.64162e-007 -1.42725e-006 1.86646e-006 -3.90377 83.3874 1.19155 -2.56029e-007 1.4486e-005 -3.00898 8.02893 -4.95092 0.697384 -49.706 -8.31107 4.93308 -119.498 17.6675 45.9355 8.72567e-007 -1.69209e-006 1.83081e-006 -4.84423 77.3835 6.63998 8.36647e-007 -1.05834e-006 3.00568 -8.02885 -4.95127 -0.697602 35.8995 66.6419 145.749 180 3.05149e-005 179.242 51.0504 85.521 -55.5217 6.14998e-006 -7.32193e-006 1.58554 -46.876 80.7058 47.6197 8.1338 25.2359 -3.474 -5.17415 70.1747 -173.779 4.47153e-006 -3.51245e-005 -0.645732 134.024 -87.6669 133.803 2.45166e-006 -6.74663e-007 -1.84785 35.0496 79.7709 -39.4495 -8.13649 25.2327 3.48678 
51.0317 65.9426 17.6906 -2.04473 35.694 5.80639 0.546502 2.51227 0.0374898 1.10169 9.02707 -0.0174444 1.10581 10.672 -0.0369569 -11.725 15.809 4.21198 -1.89189 -12.9056 0.672626 41.1645 -8.63838 -4.96663 125.823 8.73039 -38.6635 -1.64162e-007 -1.42725e-006 1.86646e-006 -2.94643 83.2157 0.344407 -2.56029e-007 1.4486e-005 -3.00898 8.02893 -4.95092 0.697384 -49.6986 -8.31246 4.9339 -119.566 17.7768 45.8139 8.72567e-007 -1.69209e-006 1.83081e-006 -5.3261 77.1274 6.978 8.36647e-007 -1.05834e-006 3.00568 -8.02885 -4.95127 -0.697602 36.1275 66.796 145.483 180 3.05149e-005 179.244 53.2344 85.6197 -57.7295 6.14998e-006 -7.32193e-006 1.57936 -46.8741 80.7091 47.6275 8.1338 25.2359 -3.474 -5.22216 70.3568 -173.732 4.47153e-006 -3.51245e-005 -0.644858 130.72 -87.8366 130.535 2.45166e-006 -6.74663e-007 -1.84236 35.0594 79.7627 -39.4354 -8.13649 25.2327 3.48681 
51.0325 66.0876 17.7244 -2.03935 35.709 5.82078 0.544298 2.50334 0.0388768 1.0973 9.00923 -0.0149801 1.10142 10.6541 -0.0342585 -11.7403 15.7267 4.20356 -1.82722 -12.8293 0.684271 41.2528 -8.62044 -4.95343 125.763 8.8793 -38.5056 -1.64162e-007 -1.42725e-006 1.86646e-006 -2.03752 83.0398 -0.454512 -2.56029e-007 1.4486e-005 -3.00898 8.02893 -4.95092 0.697384 -49.6957 -8.31289 4.93414 -119.63 17.8877 45.6906 8.72567e-007 -1.69209e-006 1.83081e-006 -5.79375 76.8711 7.30203 8.36647e-007 -1.05834e-006 3.00568 -8.02885 -4.95127 -0.697602 36.3609 66.9516 145.212 180 3.05149e-005 179.246 55.5362 85.7127 -60.0551 6.14998e-006 -7.32193e-006 1.57315 -46.8678 80.7117 47.6307 8.1338 25.2359 -3.474 -5.2729 70.5408 -173.682 4.47153e-006 -3.51245e-005 -0.644024 126.841 -87.9989 126.693 2.45166e-006 -6.74663e-007 -1.83693 35.0683 79.7538 -39.4196 -8.13649 25.2327 3.48684 
